{
    "asset" : {
        "generator" : "Khronos glTF Blender I/O v3.2.40",
        "version" : "2.0"
    },
    "scene" : 0,
    "scenes" : [
        {
            "name" : "Scene",
            "nodes" : [
                0
            ]
        }
    ],
    "nodes" : [
        {
            "mesh" : 0,
            "name" : "BezierCurve",
            "rotation" : [
                0.40557974576950073,
                0.5792279839515686,
                0.40557974576950073,
                0.5792279839515686
            ],
            "translation" : [
                0.211288720369339,
                0.6525509357452393,
                0
            ]
        }
    ],
    "materials" : [
        {
            "doubleSided" : true,
            "name" : "Mat 01",
            "pbrMetallicRoughness" : {
                "baseColorFactor" : [
                    1,
                    0.9305274486541748,
                    0.9988611340522766,
                    1
                ],
                "metallicFactor" : 0,
                "roughnessFactor" : 0.5
            }
        }
    ],
    "meshes" : [
        {
            "name" : "BezierCurve",
            "primitives" : [
                {
                    "attributes" : {
                        "POSITION" : 0,
                        "NORMAL" : 1,
                        "TEXCOORD_0" : 2
                    },
                    "indices" : 3,
                    "material" : 0
                }
            ]
        }
    ],
    "accessors" : [
        {
            "bufferView" : 0,
            "componentType" : 5126,
            "count" : 3341,
            "max" : [
                1,
                0.00984447356313467,
                0.006961094215512276
            ],
            "min" : [
                -1.0069611072540283,
                -0.00984447356313467,
                -0.23193137347698212
            ],
            "type" : "VEC3"
        },
        {
            "bufferView" : 1,
            "componentType" : 5126,
            "count" : 3341,
            "type" : "VEC3"
        },
        {
            "bufferView" : 2,
            "componentType" : 5126,
            "count" : 3341,
            "type" : "VEC2"
        },
        {
            "bufferView" : 3,
            "componentType" : 5123,
            "count" : 18432,
            "type" : "SCALAR"
        }
    ],
    "bufferViews" : [
        {
            "buffer" : 0,
            "byteLength" : 40092,
            "byteOffset" : 0
        },
        {
            "buffer" : 0,
            "byteLength" : 40092,
            "byteOffset" : 40092
        },
        {
            "buffer" : 0,
            "byteLength" : 26728,
            "byteOffset" : 80184
        },
        {
            "buffer" : 0,
            "byteLength" : 36864,
            "byteOffset" : 106912
        }
    ],
    "buffers" : [
        {
            "byteLength" : 143776,
            "uri" : "data:application/octet-stream;base64,"
        }
    ]
}
