{
    "asset" : {
        "generator" : "Khronos glTF Blender I/O v3.2.40",
        "version" : "2.0"
    },
    "scene" : 0,
    "scenes" : [
        {
            "name" : "Scene",
            "nodes" : [
                0
            ]
        }
    ],
    "nodes" : [
        {
            "mesh" : 0,
            "name" : "Cylinder",
            "rotation" : [
                0.3407185971736908,
                -0.08189962804317474,
                0.029809026047587395,
                0.9361168742179871
            ],
            "scale" : [
                0.6000000238418579,
                3.375612258911133,
                0.5640000104904175
            ],
            "translation" : [
                -0.023097697645425797,
                2.101792812347412,
                -0.021015748381614685
            ]
        }
    ],
    "materials" : [
        {
            "doubleSided" : true,
            "name" : "Handle",
            "pbrMetallicRoughness" : {
                "baseColorFactor" : [
                    0.603827178478241,
                    0.3185465335845947,
                    0.13286840915679932,
                    1
                ],
                "metallicFactor" : 0
            }
        },
        {
            "doubleSided" : true,
            "name" : "Material.001",
            "pbrMetallicRoughness" : {
                "baseColorFactor" : [
                    0.01027269009500742,
                    0.01027269009500742,
                    0.01027269009500742,
                    1
                ],
                "metallicFactor" : 0.6146789193153381,
                "roughnessFactor" : 0.5
            }
        }
    ],
    "meshes" : [
        {
            "name" : "Cylinder",
            "primitives" : [
                {
                    "attributes" : {
                        "POSITION" : 0,
                        "NORMAL" : 1,
                        "TEXCOORD_0" : 2
                    },
                    "indices" : 3,
                    "material" : 0
                },
                {
                    "attributes" : {
                        "POSITION" : 4,
                        "NORMAL" : 5,
                        "TEXCOORD_0" : 6
                    },
                    "indices" : 7,
                    "material" : 1
                }
            ]
        }
    ],
    "accessors" : [
        {
            "bufferView" : 0,
            "componentType" : 5126,
            "count" : 496,
            "max" : [
                1.0000001192092896,
                0.5906375646591187,
                1.0000001192092896
            ],
            "min" : [
                -1.0000001192092896,
                -1,
                -1.0000001192092896
            ],
            "type" : "VEC3"
        },
        {
            "bufferView" : 1,
            "componentType" : 5126,
            "count" : 496,
            "type" : "VEC3"
        },
        {
            "bufferView" : 2,
            "componentType" : 5126,
            "count" : 496,
            "type" : "VEC2"
        },
        {
            "bufferView" : 3,
            "componentType" : 5123,
            "count" : 900,
            "type" : "SCALAR"
        },
        {
            "bufferView" : 4,
            "componentType" : 5126,
            "count" : 736,
            "max" : [
                1.2442731857299805,
                0.8472872972488403,
                2.670121908187866
            ],
            "min" : [
                -1.167280912399292,
                0.4325476288795471,
                -2.68595290184021
            ],
            "type" : "VEC3"
        },
        {
            "bufferView" : 5,
            "componentType" : 5126,
            "count" : 736,
            "type" : "VEC3"
        },
        {
            "bufferView" : 6,
            "componentType" : 5126,
            "count" : 736,
            "type" : "VEC2"
        },
        {
            "bufferView" : 7,
            "componentType" : 5123,
            "count" : 1260,
            "type" : "SCALAR"
        }
    ],
    "bufferViews" : [
        {
            "buffer" : 0,
            "byteLength" : 5952,
            "byteOffset" : 0
        },
        {
            "buffer" : 0,
            "byteLength" : 5952,
            "byteOffset" : 5952
        },
        {
            "buffer" : 0,
            "byteLength" : 3968,
            "byteOffset" : 11904
        },
        {
            "buffer" : 0,
            "byteLength" : 1800,
            "byteOffset" : 15872
        },
        {
            "buffer" : 0,
            "byteLength" : 8832,
            "byteOffset" : 17672
        },
        {
            "buffer" : 0,
            "byteLength" : 8832,
            "byteOffset" : 26504
        },
        {
            "buffer" : 0,
            "byteLength" : 5888,
            "byteOffset" : 35336
        },
        {
            "buffer" : 0,
            "byteLength" : 2520,
            "byteOffset" : 41224
        }
    ],
    "buffers" : [
        {
            "byteLength" : 43744,
            "uri" : "data:application/octet-stream;base64,"
        }
    ]
}
